HIERARCHY
ROOT newVegas:Hips
{
	OFFSET 0.000000 96.479958 0.000000
	CHANNELS 6 Xposition Yposition Zposition Xrotation Yrotation Zrotation
	JOINT newVegas:Pelvis
	{
		OFFSET 0.000000 0.000000 0.000000
		CHANNELS 3 Xrotation Yrotation Zrotation
		JOINT newVegas:LeftUpLeg
		{
			OFFSET 18.735201 -5.666702 -4.541200
			CHANNELS 3 Xrotation Yrotation Zrotation
			JOINT newVegas:LeftLeg
			{
				OFFSET -0.021200 -31.938179 0.493100
				CHANNELS 3 Xrotation Yrotation Zrotation
				JOINT newVegas:LeftFoot
				{
					OFFSET 0.021200 -31.938179 -4.336299
					CHANNELS 3 Xrotation Yrotation Zrotation
					JOINT newVegas:LeftToeBase
					{
						OFFSET 0.943001 -26.722000 15.023500
						CHANNELS 3 Xrotation Yrotation Zrotation
						End Site
						{
							OFFSET 0.000000 30.670183 0.000000
						}
					}
				}
				JOINT newVegas:Left_PantLeg
				{
					OFFSET 0.663870 -9.044666 -1.108900
					CHANNELS 3 Xrotation Yrotation Zrotation
					End Site
					{
						OFFSET 1.415995 20.635357 0.000000
					}
				}
			}
		}
		JOINT newVegas:RightUpLeg
		{
			OFFSET -18.735201 -5.666702 -4.541200
			CHANNELS 3 Xrotation Yrotation Zrotation
			JOINT newVegas:RightLeg
			{
				OFFSET 0.018946 -31.938133 0.493100
				CHANNELS 3 Xrotation Yrotation Zrotation
				JOINT newVegas:RightFoot
				{
					OFFSET -0.018946 -31.938126 -4.336299
					CHANNELS 3 Xrotation Yrotation Zrotation
					JOINT newVegas:RightToeBase
					{
						OFFSET -0.943001 -26.722004 15.023500
						CHANNELS 3 Xrotation Yrotation Zrotation
						End Site
						{
							OFFSET 0.000000 30.670187 0.000000
						}
					}
				}
				JOINT newVegas:Right_PantLeg
				{
					OFFSET -0.661674 -9.044716 -1.108900
					CHANNELS 3 Xrotation Yrotation Zrotation
					End Site
					{
						OFFSET -1.415958 20.635269 0.000000
					}
				}
			}
		}
	}
	JOINT newVegas:Spine
	{
		OFFSET 0.000000 10.199997 -0.299500
		CHANNELS 3 Xrotation Yrotation Zrotation
		JOINT newVegas:Spine1
		{
			OFFSET 0.000000 11.900002 -1.516600
			CHANNELS 3 Xrotation Yrotation Zrotation
			JOINT newVegas:Spine2
			{
				OFFSET 0.000000 13.600006 -2.842500
				CHANNELS 3 Xrotation Yrotation Zrotation
				JOINT newVegas:Neck
				{
					OFFSET 0.000000 9.624100 -2.890100
					CHANNELS 3 Xrotation Yrotation Zrotation
					JOINT newVegas:Head
					{
						OFFSET 0.000000 14.068802 -1.351900
						CHANNELS 3 Xrotation Yrotation Zrotation
						JOINT newVegas:Hair_Back
						{
							OFFSET 0.000000 3.231903 -17.524799
							CHANNELS 3 Xrotation Yrotation Zrotation
							End Site
							{
								OFFSET 0.000000 19.849884 0.000000
							}
						}
						JOINT newVegas:Hair_Front
						{
							OFFSET 0.000000 31.260406 4.573800
							CHANNELS 3 Xrotation Yrotation Zrotation
							JOINT newVegas:Hair_Front1
							{
								OFFSET 0.000000 2.284103 11.993300
								CHANNELS 3 Xrotation Yrotation Zrotation
								JOINT newVegas:Hair_Front2
								{
									OFFSET 0.000000 2.284103 11.993300
									CHANNELS 3 Xrotation Yrotation Zrotation
									End Site
									{
										OFFSET 0.000000 12.208862 0.000000
									}
								}
							}
						}
						JOINT newVegas:Jowel
						{
							OFFSET 0.000000 -7.458206 6.864100
							CHANNELS 3 Xrotation Yrotation Zrotation
							End Site
							{
								OFFSET 0.000000 19.849884 0.000000
							}
						}
					}
				}
				JOINT newVegas:LeftShoulder
				{
					OFFSET 15.263000 10.923401 -0.547700
					CHANNELS 3 Xrotation Yrotation Zrotation
					JOINT newVegas:LeftArm
					{
						OFFSET 25.438599 -2.830597 -13.032500
						CHANNELS 3 Xrotation Yrotation Zrotation
						JOINT newVegas:LeftForeArm
						{
							OFFSET 29.960503 0.000000 0.000000
							CHANNELS 3 Xrotation Yrotation Zrotation
							JOINT newVegas:LeftHand
							{
								OFFSET 27.849251 0.000000 0.000000
								CHANNELS 3 Xrotation Yrotation Zrotation
								JOINT newVegas:LeftHandThumb1
								{
									OFFSET 4.487587 -3.305161 6.305391
									CHANNELS 3 Xrotation Yrotation Zrotation
									JOINT newVegas:LeftHandThumb2
									{
										OFFSET 5.480453 -3.164139 3.164143
										CHANNELS 3 Xrotation Yrotation Zrotation
										JOINT newVegas:LeftHandThumb3
										{
											OFFSET 5.159721 -2.978973 2.978967
											CHANNELS 3 Xrotation Yrotation Zrotation
											End Site
											{
												OFFSET 2.494507 5.926697 1.738678
											}
										}
									}
								}
								JOINT newVegas:LeftHandIndex1
								{
									OFFSET 18.578728 -0.527832 5.208049
									CHANNELS 3 Xrotation Yrotation Zrotation
									JOINT newVegas:LeftHandIndex2
									{
										OFFSET 3.192009 0.000000 0.000000
										CHANNELS 3 Xrotation Yrotation Zrotation
										JOINT newVegas:LeftHandIndex3
										{
											OFFSET 3.835129 0.000000 0.000000
											CHANNELS 3 Xrotation Yrotation Zrotation
											End Site
											{
												OFFSET -0.034599 3.816971 0.371180
											}
										}
									}
								}
								JOINT newVegas:LeftHandMiddle1
								{
									OFFSET 18.476105 0.000000 0.000000
									CHANNELS 3 Xrotation Yrotation Zrotation
									JOINT newVegas:LeftHandMiddle2
									{
										OFFSET 3.324875 0.000000 0.000000
										CHANNELS 3 Xrotation Yrotation Zrotation
										JOINT newVegas:LeftHandMiddle3
										{
											OFFSET 4.596550 0.000000 0.000000
											CHANNELS 3 Xrotation Yrotation Zrotation
											End Site
											{
												OFFSET 0.057701 4.578827 0.399218
											}
										}
									}
								}
								JOINT newVegas:LeftHandRing1
								{
									OFFSET 17.732719 0.121887 -4.201567
									CHANNELS 3 Xrotation Yrotation Zrotation
									JOINT newVegas:LeftHandRing2
									{
										OFFSET 2.733170 0.000000 0.000000
										CHANNELS 3 Xrotation Yrotation Zrotation
										JOINT newVegas:LeftHandRing3
										{
											OFFSET 3.178268 0.000000 0.000000
											CHANNELS 3 Xrotation Yrotation Zrotation
											End Site
											{
												OFFSET 0.119102 3.170624 0.185394
											}
										}
									}
								}
								JOINT newVegas:LeftHandPinky1
								{
									OFFSET 15.989624 -0.606689 -7.535461
									CHANNELS 3 Xrotation Yrotation Zrotation
									JOINT newVegas:LeftHandPinky2
									{
										OFFSET 2.538986 0.000000 0.000000
										CHANNELS 3 Xrotation Yrotation Zrotation
										JOINT newVegas:LeftHandPinky3
										{
											OFFSET 2.593102 0.000000 0.000000
											CHANNELS 3 Xrotation Yrotation Zrotation
											End Site
											{
												OFFSET -0.150902 2.584198 0.152708
											}
										}
									}
								}
							}
							JOINT newVegas:Left_Sleeve
							{
								OFFSET 0.267448 -0.649796 0.577675
								CHANNELS 3 Xrotation Yrotation Zrotation
								End Site
								{
									OFFSET 0.000000 15.991241 0.000000
								}
							}
							JOINT newVegas:Left_CapeC
							{
								OFFSET 15.715958 -8.608795 -6.935905
								CHANNELS 3 Xrotation Yrotation Zrotation
								JOINT newVegas:Left_CapeC1
								{
									OFFSET 0.000000 -8.688499 0.000000
									CHANNELS 3 Xrotation Yrotation Zrotation
									End Site
									{
										OFFSET 0.000000 8.688499 0.000000
									}
								}
							}
						}
						JOINT newVegas:Left_CapeB
						{
							OFFSET 26.118385 -8.608795 -7.079235
							CHANNELS 3 Xrotation Yrotation Zrotation
							JOINT newVegas:Left_CapeB1
							{
								OFFSET 0.000000 -8.688499 0.000000
								CHANNELS 3 Xrotation Yrotation Zrotation
								End Site
								{
									OFFSET 0.000000 8.688499 0.000000
								}
							}
						}
						JOINT newVegas:Left_CapeA
						{
							OFFSET 5.115639 -8.608795 -10.395809
							CHANNELS 3 Xrotation Yrotation Zrotation
							JOINT newVegas:Left_CapeA1
							{
								OFFSET 0.000000 -8.688499 0.000000
								CHANNELS 3 Xrotation Yrotation Zrotation
								End Site
								{
									OFFSET 0.000000 8.688499 0.000000
								}
							}
						}
					}
				}
				JOINT newVegas:RightShoulder
				{
					OFFSET -15.263000 10.923401 -0.547700
					CHANNELS 3 Xrotation Yrotation Zrotation
					JOINT newVegas:RightArm
					{
						OFFSET -25.438599 -2.830597 -13.032500
						CHANNELS 3 Xrotation Yrotation Zrotation
						JOINT newVegas:RightForeArm
						{
							OFFSET -29.960503 0.000000 0.000000
							CHANNELS 3 Xrotation Yrotation Zrotation
							JOINT newVegas:RightHand
							{
								OFFSET -27.849251 0.000000 0.000000
								CHANNELS 3 Xrotation Yrotation Zrotation
								JOINT newVegas:RightHandThumb1
								{
									OFFSET -4.487587 -3.305161 6.305391
									CHANNELS 3 Xrotation Yrotation Zrotation
									JOINT newVegas:RightHandThumb2
									{
										OFFSET -5.480453 -3.164139 3.164143
										CHANNELS 3 Xrotation Yrotation Zrotation
										JOINT newVegas:RightHandThumb3
										{
											OFFSET -5.159721 -2.978973 2.978967
											CHANNELS 3 Xrotation Yrotation Zrotation
											End Site
											{
												OFFSET -2.494507 5.926697 1.738678
											}
										}
									}
								}
								JOINT newVegas:RightHandIndex1
								{
									OFFSET -18.578728 -0.527832 5.208049
									CHANNELS 3 Xrotation Yrotation Zrotation
									JOINT newVegas:RightHandIndex2
									{
										OFFSET -3.192009 0.000000 0.000000
										CHANNELS 3 Xrotation Yrotation Zrotation
										JOINT newVegas:RightHandIndex3
										{
											OFFSET -3.835129 0.000000 0.000000
											CHANNELS 3 Xrotation Yrotation Zrotation
											End Site
											{
												OFFSET 0.034599 3.816971 0.371180
											}
										}
									}
								}
								JOINT newVegas:RightHandMiddle1
								{
									OFFSET -18.476105 0.000000 0.000000
									CHANNELS 3 Xrotation Yrotation Zrotation
									JOINT newVegas:RightHandMiddle2
									{
										OFFSET -3.324875 0.000000 0.000000
										CHANNELS 3 Xrotation Yrotation Zrotation
										JOINT newVegas:RightHandMiddle3
										{
											OFFSET -4.596550 0.000000 0.000000
											CHANNELS 3 Xrotation Yrotation Zrotation
											End Site
											{
												OFFSET -0.057701 4.578827 0.399218
											}
										}
									}
								}
								JOINT newVegas:RightHandRing1
								{
									OFFSET -17.732719 0.121887 -4.201567
									CHANNELS 3 Xrotation Yrotation Zrotation
									JOINT newVegas:RightHandRing2
									{
										OFFSET -2.733170 0.000000 0.000000
										CHANNELS 3 Xrotation Yrotation Zrotation
										JOINT newVegas:RightHandRing3
										{
											OFFSET -3.178268 0.000000 0.000000
											CHANNELS 3 Xrotation Yrotation Zrotation
											End Site
											{
												OFFSET -0.119102 3.170624 0.185394
											}
										}
									}
								}
								JOINT newVegas:RightHandPinky1
								{
									OFFSET -15.989624 -0.606689 -7.535461
									CHANNELS 3 Xrotation Yrotation Zrotation
									JOINT newVegas:RightHandPinky2
									{
										OFFSET -2.538986 0.000000 0.000000
										CHANNELS 3 Xrotation Yrotation Zrotation
										JOINT newVegas:RightHandPinky3
										{
											OFFSET -2.593102 0.000000 0.000000
											CHANNELS 3 Xrotation Yrotation Zrotation
											End Site
											{
												OFFSET 0.150902 2.584198 0.152708
											}
										}
									}
								}
							}
							JOINT newVegas:Right_CapeC
							{
								OFFSET -15.715958 -8.608795 -6.935905
								CHANNELS 3 Xrotation Yrotation Zrotation
								JOINT newVegas:Right_CapeC1
								{
									OFFSET 0.000000 -8.688499 0.000000
									CHANNELS 3 Xrotation Yrotation Zrotation
									End Site
									{
										OFFSET 0.000000 8.688499 0.000000
									}
								}
							}
							JOINT newVegas:Right_Sleeve
							{
								OFFSET -0.267448 -0.649994 0.577675
								CHANNELS 3 Xrotation Yrotation Zrotation
								End Site
								{
									OFFSET 0.000000 15.991302 0.000000
								}
							}
						}
						JOINT newVegas:Right_CapeA
						{
							OFFSET -5.115540 -8.608795 -10.395824
							CHANNELS 3 Xrotation Yrotation Zrotation
							JOINT newVegas:Right_CapeA1
							{
								OFFSET 0.000000 -8.688499 0.000000
								CHANNELS 3 Xrotation Yrotation Zrotation
								End Site
								{
									OFFSET 0.000000 8.688499 0.000000
								}
							}
						}
						JOINT newVegas:Right_CapeB
						{
							OFFSET -26.118187 -8.608795 -7.079266
							CHANNELS 3 Xrotation Yrotation Zrotation
							JOINT newVegas:Right_CapeB1
							{
								OFFSET 0.000000 -8.688499 0.000000
								CHANNELS 3 Xrotation Yrotation Zrotation
								End Site
								{
									OFFSET 0.000000 8.688499 0.000000
								}
							}
						}
					}
				}
				JOINT newVegas:Left_Collar
				{
					OFFSET 18.625099 8.655502 8.828100
					CHANNELS 3 Xrotation Yrotation Zrotation
					JOINT newVegas:Left_Collar1
					{
						OFFSET 14.783401 10.540405 -1.259500
						CHANNELS 3 Xrotation Yrotation Zrotation
						End Site
						{
							OFFSET 0.000000 18.199875 0.000000
						}
					}
				}
				JOINT newVegas:Collar_Back
				{
					OFFSET 0.000000 15.630707 -20.132601
					CHANNELS 3 Xrotation Yrotation Zrotation
					End Site
					{
						OFFSET 0.000000 22.523010 0.000000
					}
				}
				JOINT newVegas:Left_Peck
				{
					OFFSET 17.239599 -5.132599 25.482599
					CHANNELS 3 Xrotation Yrotation Zrotation
					End Site
					{
						OFFSET 0.000000 22.523010 0.000000
					}
				}
				JOINT newVegas:Right_Peck
				{
					OFFSET -17.239599 -5.132202 25.482599
					CHANNELS 3 Xrotation Yrotation Zrotation
					End Site
					{
						OFFSET 0.000000 22.523010 0.000000
					}
				}
				JOINT newVegas:Right_Collar
				{
					OFFSET -18.625099 8.655792 8.828100
					CHANNELS 3 Xrotation Yrotation Zrotation
					JOINT newVegas:Right_Collar1
					{
						OFFSET -14.783401 10.539993 -1.259500
						CHANNELS 3 Xrotation Yrotation Zrotation
						End Site
						{
							OFFSET 0.000000 18.199631 0.000000
						}
					}
				}
			}
		}
		JOINT newVegas:Belly
		{
			OFFSET 0.000000 -6.540398 9.014299
			CHANNELS 3 Xrotation Yrotation Zrotation
			End Site
			{
				OFFSET 0.000000 11.566666 0.000000
			}
		}
	}
	JOINT newVegas:ElvisFacialAnim_Joint
	{
		OFFSET 1.000000 -95.330101 -8.825800
		CHANNELS 3 Xrotation Yrotation Zrotation
		End Site
		{
			OFFSET 0.000000 35.315800 0.000000
		}
	}
}
MOTION
Frames: 4
Frame Time: 0.033333
-2.492031 20.598366 4.121941 -52.923174 -11.936401 5.819340 0.000002 -0.000000 -0.000000 -64.995745 17.280368 37.751501 43.093685 -6.966988 12.747248 -17.032706 -1.874051 3.656849 -0.000001 -0.000001 -0.000002 -0.000001 -0.000002 -0.000001 -66.281836 7.791983 -20.422214 31.166662 9.750658 -9.389127 10.071931 7.252624 8.858723 0.000002 0.000000 0.000001 0.000000 -0.000000 -0.000001 4.218660 0.224873 -7.787714 27.857961 -3.126635 0.874577 27.836016 -3.257723 -0.155150 2.958392 0.098981 0.549191 2.958401 0.098979 0.549200 -0.000001 0.000001 -0.000000 2.958466 0.099004 0.549186 2.958320 0.098975 0.549189 0.000002 0.000000 -0.000000 -0.000001 0.000001 -0.000000 13.752243 1.496524 -20.714104 -22.152011 -20.276631 -60.989662 -0.000000 -15.402502 -0.000001 35.976707 -6.863494 62.964276 -2.819852 -11.541962 28.522945 12.080964 -2.312292 -11.111585 0.000001 0.000000 -0.000004 14.437662 -3.718591 -2.402437 0.334369 1.952624 -19.432214 -0.000001 -0.000001 0.000001 -0.036739 9.964268 1.150010 0.213449 1.568500 -15.498135 -0.000001 -0.000001 -0.000000 -2.235923 17.469838 9.357223 0.345964 1.985168 -19.769542 0.000002 0.000001 0.000001 -3.641365 25.068017 10.317686 0.043195 0.710875 -6.954317 -0.000000 -0.000002 -0.000000 -0.000000 -0.000001 -0.000001 -0.000000 -0.000001 -0.000001 -0.000001 -0.000001 -0.000001 0.000001 -0.000001 0.000000 0.000002 -0.000001 0.000000 0.000001 -0.000001 0.000000 0.000002 -0.000001 -0.000000 -7.289737 26.687062 14.754139 -24.096127 -34.229206 49.937815 0.000027 49.715796 -0.000037 59.637127 20.532324 -28.221133 2.919996 14.227274 1.065031 21.790839 -28.692139 6.713805 -0.000002 0.000002 0.000003 -1.503716 2.462639 17.433419 1.034709 -2.928886 38.907370 0.000000 0.000000 -0.000000 0.166852 -3.507342 22.905144 0.035993 -0.578544 7.120529 -0.000001 -0.000000 -0.000000 1.114413 -8.678115 9.876211 0.099242 -0.957305 11.836615 0.000003 -0.000001 0.000002 1.762446 -13.283382 10.598195 0.006671 -0.249382 3.062770 0.000001 0.000002 0.000000 -0.000001 0.000001 0.000001 0.000000 0.000001 -0.000001 -0.000001 0.000001 0.000001 -0.000000 0.000001 0.000000 -0.000000 0.000002 -0.000000 -0.000000 0.000001 0.000000 -0.000000 0.000002 -0.000000 -0.000000 0.000000 0.000001 -0.000000 0.000000 0.000001 -0.000000 0.000000 0.000001 -0.000000 0.000000 0.000001 -0.000000 0.000000 0.000001 -0.000000 0.000000 0.000001 -0.000000 0.000000 0.000001 0.000002 0.000000 -0.000000 0.000002 -0.000000 -0.000000 
-2.478138 20.605438 4.090195 -52.914063 -11.877138 5.717640 -0.000001 0.000000 -0.000000 -65.093615 17.120197 37.744138 43.072611 -6.667852 12.794578 -16.902399 -2.126025 3.561150 -0.000000 -0.000000 -0.000001 0.000001 0.000001 -0.000003 -66.222823 7.694189 -20.408858 31.199478 9.797248 -9.336121 9.942192 7.227454 8.750032 0.000002 -0.000000 -0.000003 0.000000 -0.000000 0.000000 4.269249 0.169693 -7.835169 27.888695 -3.146814 0.874580 27.867450 -3.274374 -0.155147 2.977794 0.102007 0.548363 2.977799 0.102005 0.548361 -0.000000 0.000000 -0.000000 2.977869 0.102012 0.548361 2.977797 0.101996 0.548366 -0.000000 0.000000 -0.000001 -0.000000 0.000000 0.000000 13.725882 1.444375 -20.656948 -22.145126 -20.142771 -61.032685 -0.000018 -15.552554 -0.000031 35.834656 -6.947418 63.063512 -2.818801 -11.544913 28.522542 12.091891 -2.269491 -11.133289 0.000001 -0.000003 -0.000003 14.457847 -3.683899 -2.462101 0.336258 1.957960 -19.487505 0.000001 -0.000001 0.000001 -0.031245 10.030640 1.105995 0.213824 1.569833 -15.511486 0.000001 -0.000001 -0.000001 -2.234293 17.560196 9.309655 0.348373 1.991833 -19.838969 0.000000 0.000001 0.000000 -3.566407 25.140845 10.355459 0.044446 0.721022 -7.054089 -0.000000 -0.000002 -0.000000 0.000003 -0.000001 0.000001 0.000003 -0.000001 0.000001 0.000002 -0.000001 0.000001 0.000001 -0.000001 0.000001 0.000001 -0.000001 0.000001 0.000001 -0.000001 0.000001 -0.000001 -0.000001 0.000001 -7.314803 26.760384 14.728029 -24.298176 -34.037968 49.857447 0.000018 49.288137 -0.000016 59.616773 20.527886 -28.322348 2.908663 14.215318 1.053561 21.758485 -28.642361 6.686626 0.000000 -0.000003 0.000001 -1.508623 2.501487 17.374454 1.023265 -2.914669 38.682650 -0.000002 0.000003 -0.000002 0.168586 -3.509175 22.824667 0.036234 -0.580426 7.143625 -0.000001 0.000000 -0.000000 1.111885 -8.671835 9.862383 0.100078 -0.961232 11.885916 -0.000000 0.000001 -0.000003 1.760999 -13.310644 10.560127 0.007082 -0.256918 3.155467 0.000001 -0.000000 -0.000000 -0.000002 -0.000000 -0.000001 0.000000 0.000005 -0.000002 -0.000002 -0.000000 -0.000001 -0.000003 0.000000 -0.000000 -0.000003 0.000001 -0.000000 -0.000003 0.000000 -0.000000 -0.000003 0.000001 -0.000000 0.000001 -0.000000 -0.000000 0.000001 -0.000000 -0.000000 0.000001 -0.000000 -0.000000 0.000001 -0.000000 -0.000000 0.000001 -0.000000 -0.000000 0.000001 -0.000000 -0.000000 0.000001 -0.000000 -0.000000 -0.000003 -0.000000 -0.000000 -0.000001 0.000000 -0.000000 
-2.462428 20.609100 4.056114 -52.902250 -11.852567 5.630603 -0.000002 0.000000 -0.000000 -65.204558 16.953093 37.827626 43.046827 -6.213135 12.753059 -16.839307 -2.529662 3.419028 -0.000000 -0.000000 -0.000002 -0.000000 -0.000001 0.000001 -66.194232 7.620879 -20.321703 31.269945 9.855399 -9.339452 9.801933 7.163964 8.648443 0.000000 -0.000001 -0.000003 0.000000 -0.000001 -0.000006 4.323642 0.194487 -7.866833 27.900225 -3.142800 0.874580 27.880417 -3.270222 -0.156758 3.001833 0.113512 0.539590 3.001840 0.113516 0.539589 -0.000001 -0.000001 -0.000000 3.001868 0.113508 0.539584 3.001793 0.113507 0.539591 -0.000001 0.000000 0.000001 -0.000001 -0.000001 -0.000000 13.704802 1.421924 -20.548312 -22.067110 -20.115549 -61.057779 0.000002 -15.737975 0.000013 35.771914 -6.863385 63.145816 -2.815645 -11.561421 28.520304 12.112039 -2.177911 -11.178113 -0.000000 0.000001 -0.000001 14.473108 -3.658884 -2.401166 0.335714 1.956419 -19.471527 0.000000 -0.000002 0.000003 -0.045831 10.053259 1.213435 0.214229 1.571301 -15.526393 -0.000000 0.000001 -0.000002 -2.273125 17.650329 9.406570 0.350045 1.996471 -19.886955 0.000001 -0.000004 0.000002 -3.580713 25.203104 10.398711 0.044967 0.725250 -7.095673 -0.000001 -0.000002 -0.000000 0.000001 -0.000000 -0.000003 0.000001 -0.000000 -0.000003 0.000000 -0.000000 -0.000003 0.000001 0.000000 -0.000002 0.000001 -0.000000 -0.000003 0.000001 0.000000 -0.000002 0.000002 0.000000 -0.000003 -7.312100 26.780144 14.706692 -24.464208 -33.873329 49.819372 -0.000019 48.840893 0.000029 59.605531 20.522249 -28.512099 2.870536 14.177507 1.023330 21.636656 -28.479946 6.590224 0.000000 0.000004 0.000001 -1.516884 2.584657 17.231476 1.031512 -2.924946 38.844631 -0.000003 0.000002 -0.000003 0.178116 -3.525346 22.585434 0.037290 -0.588790 7.247406 0.000002 0.000001 -0.000001 1.073273 -8.698324 9.431611 0.100453 -0.963075 11.908984 0.000002 0.000001 0.000001 1.776986 -13.400289 10.549704 0.007454 -0.263635 3.238002 0.000000 -0.000000 -0.000000 0.000000 -0.000000 0.000000 0.000002 -0.000001 -0.000000 0.000000 -0.000001 0.000000 -0.000001 0.000001 -0.000000 -0.000001 0.000002 -0.000001 -0.000001 0.000001 -0.000000 -0.000001 0.000002 -0.000001 -0.000000 -0.000000 -0.000000 -0.000000 -0.000000 -0.000000 -0.000000 -0.000000 -0.000000 -0.000000 -0.000000 -0.000000 -0.000000 -0.000000 -0.000000 -0.000000 -0.000000 -0.000000 -0.000000 -0.000000 -0.000000 0.000000 0.000000 -0.000000 -0.000002 0.000000 -0.000000 
-2.442952 20.609337 4.031296 -52.879400 -11.860156 5.553693 0.000005 0.000000 -0.000001 -65.308985 16.800088 37.974523 43.031773 -5.755261 12.670367 -16.839825 -2.947852 3.279805 -0.000000 -0.000000 -0.000004 0.000003 -0.000002 -0.000000 -66.184437 7.559563 -20.213113 31.336143 9.932551 -9.347165 9.666984 7.090345 8.557440 0.000002 -0.000001 -0.000000 -0.000000 -0.000001 -0.000002 4.407840 0.316144 -7.898514 27.903242 -3.113524 0.857854 27.885069 -3.245232 -0.177458 3.030967 0.138064 0.525042 3.030984 0.138066 0.525052 0.000001 0.000001 0.000000 3.031045 0.138082 0.525039 3.030885 0.138040 0.525040 -0.000001 0.000000 -0.000000 0.000001 0.000001 -0.000000 13.685081 1.412436 -20.408125 -21.862993 -20.194354 -61.001239 -0.000004 -16.103851 -0.000008 35.745949 -6.665571 63.231494 -2.809161 -11.589655 28.516444 12.108378 -2.177155 -11.183168 0.000000 0.000000 -0.000001 14.492261 -3.628787 -2.244829 0.334642 1.953432 -19.440334 -0.000001 -0.000001 0.000000 -0.072698 10.057956 1.412257 0.213845 1.569922 -15.512417 0.000000 -0.000004 0.000000 -2.298933 17.678954 9.484889 0.349491 1.994936 -19.871151 0.000001 0.000001 -0.000000 -3.617857 25.278788 10.466923 0.043084 0.709951 -6.945205 -0.000000 -0.000003 -0.000001 -0.000000 0.000000 -0.000000 -0.000000 0.000000 -0.000000 -0.000001 0.000001 0.000000 -0.000001 0.000000 -0.000000 -0.000001 0.000000 -0.000001 -0.000001 0.000000 -0.000000 -0.000000 0.000001 -0.000001 -7.319874 26.749799 14.748221 -24.680969 -33.780668 49.759677 -0.000006 48.349085 0.000013 59.602580 20.552210 -28.804687 2.806598 14.120497 0.974562 21.498302 -28.306013 6.503771 -0.000000 0.000002 0.000001 -1.493054 2.587815 17.020434 1.039226 -2.934467 38.995684 -0.000000 -0.000002 0.000004 0.192365 -3.553556 22.343198 0.038358 -0.597111 7.350334 -0.000001 -0.000000 0.000001 1.069416 -8.796801 9.227524 0.101473 -0.967886 11.969282 -0.000001 -0.000001 -0.000001 1.799128 -13.472338 10.652729 0.007577 -0.265813 3.264795 0.000000 0.000003 0.000001 -0.000002 0.000003 0.000001 0.000001 0.000001 -0.000001 -0.000002 0.000003 0.000001 0.000001 0.000000 -0.000000 0.000001 0.000001 0.000000 0.000001 0.000000 -0.000000 0.000001 0.000001 0.000000 0.000000 0.000001 -0.000000 0.000000 0.000001 -0.000000 0.000000 0.000001 -0.000000 0.000000 0.000001 -0.000000 0.000000 0.000001 -0.000000 0.000000 0.000001 -0.000000 0.000000 0.000001 -0.000000 0.000001 0.000000 0.000000 0.000005 0.000000 -0.000001 
